<?xml version="1.0" standalone="no"?><!DOCTYPE svg PUBLIC "-//W3C//DTD SVG 1.1//EN" "http://www.w3.org/Graphics/SVG/1.1/DTD/svg11.dtd"><svg t="1625734046487" class="icon" viewBox="0 0 1024 1024" version="1.1" xmlns="http://www.w3.org/2000/svg" p-id="17593" width="32" height="32" xmlns:xlink="http://www.w3.org/1999/xlink"><defs><style type="text/css"></style></defs><path d="M919.791037 0H103.921119C58.132501 0 20.669086 37.463415 20.669086 83.252033v570.276422c0 49.95122 37.463415 87.414634 83.252033 87.414634h362.146341v283.056911l287.219512-283.056911h166.504065c45.788618 0 83.252033-37.463415 83.252033-83.252032V83.252033c4.162602-45.788618-37.463415-83.252033-83.252033-83.252033z m33.300813 624.390244c0 41.626016-37.463415 74.926829-74.926829 74.926829h-166.504065l-199.804878 199.804878v-199.804878H149.709737c-41.626016 0-74.926829-33.300813-74.92683-74.926829V116.552846c0-41.626016 33.300813-74.926829 74.92683-74.92683h728.455284c37.463415 0 74.926829 33.300813 74.926829 74.92683v507.837398z" p-id="17594" fill="#d81e06"></path><path d="M120.571525 374.634146c0 45.788618 33.300813 79.089431 79.089431 79.089431 41.626016 0 79.089431-33.300813 79.089431-79.089431 0-41.626016-37.463415-79.089431-79.089431-79.089431-45.788618 0-79.089431 37.463415-79.089431 79.089431zM528.506485 420.422764c-8.325203-24.97561-16.650407-41.626016-37.463415-45.788618 24.97561-4.162602 41.626016-20.813008 41.626016-49.951219 0-33.300813-24.97561-49.95122-70.764227-54.113821H374.490224v208.130081h41.626017V395.447154h49.951219c8.325203 0 16.650407 8.325203 16.650407 24.97561 0 20.813008 4.162602 37.463415 8.325203 58.276423h45.788618c-4.162602-8.325203-8.325203-24.97561-8.325203-49.95122v-8.325203z m-74.92683-58.276423h-37.463414V308.03252h37.463414c20.813008 0 29.138211 8.325203 33.300813 24.97561-4.162602 16.650407-12.487805 29.138211-33.300813 29.138211zM607.595915 387.121951h87.414635v-33.300813h-87.414635V308.03252h91.577236v-37.463414h-137.365853v208.130081h141.528455v-37.463415h-95.739838zM815.725997 299.707317c24.97561 0 37.463415 12.487805 37.463414 37.463415h49.95122c-4.162602-45.788618-33.300813-66.601626-87.414634-70.764228-58.276423 4.162602-83.252033 37.463415-87.414634 108.227642 4.162602 70.764228 29.138211 104.065041 87.414634 104.065041 54.113821 0 83.252033-20.813008 87.414634-66.601626h-49.95122c0 24.97561-12.487805 37.463415-37.463414 37.463415s-37.463415-24.97561-41.626017-74.92683c4.162602-49.95122 16.650407-74.926829 41.626017-74.926829z" p-id="17595" fill="#d81e06"></path></svg>