<?xml version="1.0" standalone="no"?><!DOCTYPE svg PUBLIC "-//W3C//DTD SVG 1.1//EN" "http://www.w3.org/Graphics/SVG/1.1/DTD/svg11.dtd"><svg t="1625731526552" class="icon" viewBox="0 0 1024 1024" version="1.1" xmlns="http://www.w3.org/2000/svg" p-id="5223" xmlns:xlink="http://www.w3.org/1999/xlink" width="64" height="64"><defs><style type="text/css"></style></defs><path d="M512 1010.667c-278.36 0-504-225.641-504-504s225.64-504 504-504 504 225.64 504 504-225.64 504-504 504z m0-94.5a409.5 409.5 0 1 0 0-819 409.5 409.5 0 0 0 0 819zM323 367.815c0-27.72 22.529-50.148 50.198-50.148h277.604c27.72 0 50.198 22.528 50.198 50.198v277.603c0 27.72-22.529 50.199-50.198 50.199H373.198A50.198 50.198 0 0 1 323 645.468V367.865z" fill="#1296db" p-id="5224"></path></svg>